<svg aria-hidden="true" style="width:0;height:0;position:absolute;overflow:hidden" xmlns="http://www.w3.org/2000/svg"><defs><symbol id="icon-arrow" viewBox="0 0 82 32"><path d="M81.414 17.414a2 2 0 0 0 0-2.828L68.686 1.858a2 2 0 1 0-2.828 2.828L77.172 16 65.858 27.314a2 2 0 1 0 2.828 2.828l12.728-12.728zM0 18h80v-4H0v4z"/></symbol><symbol id="icon-close_button_cross" viewBox="0 0 32 32"><path d="m17.253 16 7.369-7.369a.889.889 0 0 0-1.255-1.252l.001-.001-7.369 7.369L8.63 7.37a.893.893 0 1 0-1.263 1.26l.001.001L14.747 16l-7.379 7.369a.888.888 0 1 0 1.252 1.254l.001-.001L16 17.253l7.368 7.369a.889.889 0 0 0 1.252-1.255l.001.001-7.368-7.369z"/></symbol></defs></svg>